<svg width="290" height="492" viewBox="0 0 290 492" fill="none" xmlns="http://www.w3.org/2000/svg">
<path d="M281.2 226.8L62.2502 7.86C57.1918 2.83427 50.3508 0.0135651 43.2202 0.0135651C36.0896 0.0135651 29.2486 2.83427 24.1902 7.86L8.06019 24C3.05268 29.0558 0.243518 35.8841 0.243518 43C0.243518 50.1159 3.05268 56.9442 8.06019 62L191.92 245.9L7.86019 430C2.83142 435.059 0.00878906 441.902 0.00878906 449.035C0.00878906 456.168 2.83142 463.011 7.86019 468.07L24.0002 484.14C29.059 489.169 35.9022 491.991 43.0352 491.991C50.1682 491.991 57.0114 489.169 62.0702 484.14L281.2 265C286.23 259.915 289.051 253.052 289.051 245.9C289.051 238.748 286.23 231.885 281.2 226.8Z" fill="#003366"/>
</svg>
