<?xml version="1.0" encoding="UTF-8"?>
<svg width="24px" height="24px" viewBox="0 0 24 24" version="1.1" xmlns="http://www.w3.org/2000/svg" xmlns:xlink="http://www.w3.org/1999/xlink">
    <title>Slice 1</title>
    <g id="Page-1" stroke="none" stroke-width="1" fill="none" fill-rule="evenodd">
        <g id="Group" fill="#91c3e4" fill-rule="nonzero">
            <path d="M12,2.163 C15.204,2.163 15.584,2.175 16.85,2.233 C20.102,2.381 21.621,3.924 21.769,7.152 C21.827,8.417 21.838,8.797 21.838,12.001 C21.838,15.206 21.826,15.585 21.769,16.85 C21.62,20.075 20.105,21.621 16.85,21.769 C15.584,21.827 15.206,21.839 12,21.839 C8.796,21.839 8.416,21.827 7.151,21.769 C3.891,21.62 2.38,20.07 2.232,16.849 C2.174,15.584 2.162,15.205 2.162,12 C2.162,8.796 2.175,8.417 2.232,7.151 C2.381,3.924 3.896,2.38 7.151,2.232 C8.417,2.175 8.796,2.163 12,2.163 L12,2.163 Z M12,0 C8.741,0 8.333,0.014 7.053,0.072 C2.695,0.272 0.273,2.69 0.073,7.052 C0.014,8.333 0,8.741 0,12 C0,15.259 0.014,15.668 0.072,16.948 C0.272,21.306 2.69,23.728 7.052,23.928 C8.333,23.986 8.741,24 12,24 C15.259,24 15.668,23.986 16.948,23.928 C21.302,23.728 23.73,21.31 23.927,16.948 C23.986,15.668 24,15.259 24,12 C24,8.741 23.986,8.333 23.928,7.053 C23.732,2.699 21.311,0.273 16.949,0.073 C15.668,0.014 15.259,0 12,0 Z M12,5.838 C9.79852941,5.838 7.76428669,7.01247053 6.66355139,8.91899997 C5.56281608,10.8255294 5.56281608,13.1744706 6.66355139,15.081 C7.76428669,16.9875295 9.79852941,18.162 12,18.162 C15.4031786,18.162 18.162,15.4031786 18.162,12 C18.162,8.59682137 15.4031786,5.838 12,5.838 L12,5.838 Z M12,16 C9.790861,16 8,14.209139 8,12 C8,9.790861 9.790861,8 12,8 C14.209139,8 16,9.790861 16,12 C16,14.209139 14.209139,16 12,16 Z M18.406,4.155 C17.8913589,4.155 17.4158109,4.42955774 17.1584904,4.87524999 C16.9011698,5.32094225 16.9011698,5.87005775 17.1584904,6.31575001 C17.4158109,6.76144226 17.8913589,7.036 18.406,7.036 C19.2015662,7.036 19.8465,6.39106617 19.8465,5.5955 C19.8465,4.79993383 19.2015662,4.155 18.406,4.155 Z" id="Shape"></path>
        </g>
    </g>
</svg>