<?xml version="1.0" encoding="UTF-8"?>
<svg width="24px" height="23px" viewBox="0 0 24 23" version="1.1" xmlns="http://www.w3.org/2000/svg" xmlns:xlink="http://www.w3.org/1999/xlink">
    <title>Slice 1</title>
    <g id="Page-1" stroke="none" stroke-width="1" fill="none" fill-rule="evenodd">
        <g id="Group" fill="#B2FF33" fill-rule="nonzero">
            <path d="M4.98002019,2.5 C4.9826575,3.16039067 4.72286423,3.79478857 4.25777286,4.26363068 C3.79268149,4.73247278 3.16039071,4.99735315 2.5,5 C1.83960929,4.99735315 1.20731851,4.73247278 0.742227142,4.26363068 C0.277135774,3.79478857 0.0173425029,3.16039067 0.0199798108,2.5 C0.0199798108,1.12 1.13,0 2.5,0 C3.16039071,0.00264684581 3.79268149,0.26752722 4.25777286,0.736369325 C4.72286423,1.20521143 4.9826575,1.83960933 4.98002019,2.5 Z M5,7 L0,7 L0,23 L5,23 L5,7 Z M12.982,7 L8.014,7 L8.014,23 L12.983,23 L12.983,14.601 C12.983,9.931 19.012,9.549 19.012,14.601 L19.012,23 L24,23 L24,12.869 C24,4.989 15.078,5.276 12.982,9.155 L12.982,7 Z" id="Shape"></path>
        </g>
    </g>
</svg>