<?xml version="1.0" encoding="UTF-8"?>
<svg width="25px" height="24px" viewBox="0 0 25 24" version="1.1" xmlns="http://www.w3.org/2000/svg" xmlns:xlink="http://www.w3.org/1999/xlink">
    <title>Slice 1</title>
    <g id="Page-1" stroke="none" stroke-width="1" fill="none" fill-rule="evenodd">
        <g id="Group" transform="translate(1.000000, 0.000000)" fill="#B2FF33" fill-rule="nonzero">
            <path d="M11.9999284,-4.54747351e-14 C5.37269161,-4.54747351e-14 0,5.37254832 0,11.9997851 C0,18.6273084 5.37269161,23.9994268 11.9999284,23.9994268 C18.6278816,23.9994268 24,18.6273084 24,11.9997851 C24,5.3729782 18.6278816,0.000573178814 11.9997851,0.000573178814 L11.9999284,-4.54747351e-14 Z M17.5030181,17.3071343 C17.2880761,17.6596393 16.8266671,17.7714091 16.4741622,17.5550341 C13.6567017,15.8340647 10.1098712,15.4443031 5.93283061,16.3986459 C5.53031579,16.4903545 5.12909062,16.2381558 5.03738201,15.8354977 C4.94524351,15.4328396 5.19643913,15.0316144 5.59995701,14.9399058 C10.1710581,13.8951441 14.092031,14.3452328 17.2551183,16.2782783 C17.6076233,16.4946533 17.7193931,16.9546293 17.5030181,17.3071343 L17.5030181,17.3071343 Z M18.9717889,14.0392986 C18.7009619,14.4799298 18.1249172,14.6189256 17.6850024,14.3480987 C14.4594386,12.3650433 9.54256748,11.7908614 5.727346,12.9489692 C5.23254939,13.0984255 4.70995361,12.8195741 4.55978076,12.3256372 C4.41075427,11.8308406 4.68974906,11.3092479 5.1836859,11.1587884 C9.54170771,9.83646492 14.9595372,10.4769922 18.6637052,12.7532286 C19.10362,13.0240556 19.2426158,13.6001003 18.9717889,14.0394419 L18.9717889,14.0392986 Z M19.0978882,10.6369091 C15.2303641,8.33975174 8.849451,8.12853535 5.15688979,9.24924322 C4.56393631,9.42907808 3.93687868,9.09434165 3.75718712,8.50138817 C3.57749557,7.9081481 3.9119454,7.28152036 4.50532877,7.10125562 C8.7441294,5.81446918 15.7906464,6.06308549 20.2433861,8.70644289 C20.7778753,9.02298089 20.9526948,9.71179853 20.6360135,10.2444249 C20.3207652,10.7777678 19.6300847,10.9535904 19.0984614,10.6369091 L19.0978882,10.6369091 Z" id="Shape"></path>
        </g>
    </g>
</svg>