<?xml version="1.0" encoding="utf-8"?>
<!-- Generator: Adobe Illustrator 28.1.0, SVG Export Plug-In . SVG Version: 6.00 Build 0)  -->
<svg version="1.1" id="icons" xmlns="http://www.w3.org/2000/svg" xmlns:xlink="http://www.w3.org/1999/xlink" x="0px" y="0px"
	 viewBox="0 0 24 24" style="enable-background:new 0 0 24 24;" xml:space="preserve">
<style type="text/css">
	.st0{fill:#B2FF33;}
</style>
<path class="st0" d="M19.3,5.6c-0.2-0.1-0.3-0.2-0.4-0.3c-0.4-0.3-0.8-0.6-1.1-1c-0.8-1-1.2-2-1.3-2.6h0c-0.1-0.6-0.1-0.9-0.1-0.9
	h-3.9v14.9c0,0.2,0,0.4,0,0.6c0,0,0,0,0,0.1c0,0,0,0,0,0c0,0,0,0,0,0c-0.1,1.1-0.7,2.1-1.7,2.6c-0.5,0.3-1,0.4-1.6,0.4
	C7.5,19.4,6,18,6,16.1s1.5-3.3,3.3-3.3c0.3,0,0.7,0.1,1,0.2l0-3.9c-2-0.3-4,0.3-5.5,1.6c-0.7,0.6-1.2,1.3-1.7,2
	C2.9,13,2.3,14.2,2.3,16c0,1,0.3,2.1,0.4,2.6v0c0.1,0.3,0.5,1.2,1,1.9c0.5,0.6,1,1.1,1.7,1.6v0l0,0c1.9,1.3,3.9,1.2,3.9,1.2
	c0.4,0,1.6,0,2.9-0.6c1.5-0.7,2.4-1.8,2.4-1.8c0.6-0.6,1-1.4,1.3-2.2c0.3-0.9,0.5-2,0.5-2.5V8.3c0,0,0.7,0.4,0.7,0.4s0.9,0.6,2.3,1
	c1,0.3,2.4,0.3,2.4,0.3V6.2C21.3,6.2,20.3,6.1,19.3,5.6z"/>
</svg>
